<?xml version="1.0" standalone="no"?>
<!DOCTYPE svg PUBLIC "-//W3C//DTD SVG 20010904//EN"
 "http://www.w3.org/TR/2001/REC-SVG-20010904/DTD/svg10.dtd">
<svg version="1.0" xmlns="http://www.w3.org/2000/svg"
 width="300.000000pt" height="300.000000pt" viewBox="0 0 300.000000 300.000000"
 preserveAspectRatio="xMidYMid meet">
<metadata>
Created by potrace 1.10, written by Peter Selinger 2001-2011
</metadata>
<g transform="translate(0.000000,300.000000) scale(0.100000,-0.100000)"
fill="#000000" stroke="none">
<path d="M1360 2994 c-14 -2 -68 -11 -120 -20 -115 -18 -299 -78 -407 -132
-280 -141 -534 -395 -675 -675 -51 -103 -112 -287 -135 -407 -24 -130 -24
-390 0 -520 58 -309 196 -571 421 -796 225 -225 487 -363 796 -421 130 -24
390 -24 520 0 309 58 571 196 796 421 225 225 363 487 421 796 24 130 24 390
0 520 -23 120 -84 304 -135 407 -141 280 -395 534 -675 675 -102 51 -287 112
-402 133 -87 16 -353 28 -405 19z m1087 -789 l104 -104 -676 -677 -676 -678
-377 377 -377 377 107 107 108 108 265 -265 c146 -146 269 -266 274 -268 5 -2
263 251 573 562 309 311 565 565 566 565 2 1 51 -46 109 -104z"/>
</g>
</svg>
