<?xml version="1.0" standalone="no"?>
<!DOCTYPE svg PUBLIC "-//W3C//DTD SVG 20010904//EN"
 "http://www.w3.org/TR/2001/REC-SVG-20010904/DTD/svg10.dtd">
<svg version="1.0" xmlns="http://www.w3.org/2000/svg"
 width="512.000000pt" height="512.000000pt" viewBox="0 0 512.000000 512.000000"
 preserveAspectRatio="xMidYMid meet">
<metadata>
Created by potrace 1.10, written by Peter Selinger 2001-2011
</metadata>
<g transform="translate(0.000000,512.000000) scale(0.100000,-0.100000)"
fill="#000000" stroke="none">
<path d="M51 5106 c-53 -30 -50 102 -51 -2233 0 -1663 3 -2178 12 -2198 27
-59 -124 -55 2238 -55 2362 0 2211 -4 2238 55 9 20 12 535 12 2196 0 2361 4
2210 -55 2237 -40 19 -4360 17 -4394 -2z m4249 -456 l0 -270 -2050 0 -2050 0
0 270 0 270 2050 0 2050 0 0 -270z m10 -2155 l0 -1685 -2060 0 -2060 0 0 1685
0 1685 2060 0 2060 0 0 -1685z"/>
<path d="M371 4746 c-8 -9 -11 -45 -9 -103 l3 -88 103 -3 103 -3 -3 103 -3
103 -91 3 c-70 2 -94 -1 -103 -12z"/>
<path d="M747 4754 c-4 -4 -7 -52 -7 -106 l0 -99 103 3 102 3 0 100 0 100 -95
3 c-53 1 -99 0 -103 -4z"/>
<path d="M1127 4754 c-4 -4 -7 -52 -7 -106 l0 -98 100 0 101 0 -3 103 -3 102
-90 3 c-50 1 -94 0 -98 -4z"/>
<path d="M3377 4754 c-4 -4 -7 -52 -7 -106 l0 -98 100 0 101 0 -3 103 -3 102
-90 3 c-50 1 -94 0 -98 -4z"/>
<path d="M3747 4753 c-4 -3 -7 -51 -7 -105 l0 -98 198 2 197 3 3 94 c2 69 -1
97 -10 103 -15 9 -372 11 -381 1z"/>
<path d="M1238 3537 c-102 -127 -192 -244 -198 -259 -7 -14 -10 -38 -6 -52 5
-20 321 -430 381 -495 11 -11 25 -4 84 44 39 31 71 59 71 61 0 3 -72 94 -160
204 -88 109 -160 201 -160 205 0 3 72 95 160 205 88 110 160 201 160 204 0 4
-137 116 -142 116 -2 0 -87 -105 -190 -233z"/>
<path d="M3007 3721 c-32 -27 -63 -53 -69 -59 -7 -7 40 -73 151 -211 89 -110
161 -203 161 -206 0 -4 -72 -96 -160 -205 -88 -110 -160 -201 -160 -204 0 -2
32 -30 71 -61 59 -48 73 -55 84 -44 60 65 376 475 381 495 4 14 1 38 -6 52
-13 29 -381 492 -390 491 -3 0 -31 -22 -63 -48z"/>
<path d="M2436 3738 c-83 -130 -545 -912 -541 -916 3 -3 38 -25 78 -49 56 -33
74 -40 83 -30 11 12 554 916 554 922 0 2 -111 69 -152 92 -4 2 -14 -7 -22 -19z"/>
<path d="M567 2493 c-4 -3 -7 -46 -7 -95 l0 -88 660 0 661 0 -3 93 -3 92 -651
3 c-358 1 -654 -1 -657 -5z"/>
<path d="M2067 2493 c-4 -3 -7 -46 -7 -95 l0 -88 95 0 95 0 0 95 0 95 -88 0
c-49 0 -92 -3 -95 -7z"/>
<path d="M2447 2493 c-4 -3 -7 -46 -7 -95 l0 -88 95 0 95 0 0 89 c0 72 -3 90
-16 95 -21 8 -159 8 -167 -1z"/>
<path d="M560 2025 l0 -95 283 2 282 3 0 90 0 90 -282 3 -283 2 0 -95z"/>
<path d="M1310 2025 l0 -95 95 0 95 0 0 95 0 95 -95 0 -95 0 0 -95z"/>
<path d="M1690 2025 l0 -96 93 3 92 3 0 90 0 90 -92 3 -93 3 0 -96z"/>
<path d="M2062 2028 l3 -93 468 -3 467 -2 0 95 0 95 -470 0 -471 0 3 -92z"/>
<path d="M3190 2025 l0 -95 375 0 375 0 0 95 0 95 -375 0 -375 0 0 -95z"/>
<path d="M567 1743 c-4 -3 -7 -46 -7 -95 l0 -88 285 0 286 0 -3 93 -3 92 -276
3 c-151 1 -278 -1 -282 -5z"/>
<path d="M1317 1744 c-4 -4 -7 -47 -7 -96 l0 -88 95 0 96 0 -3 93 -3 92 -85 3
c-47 1 -89 0 -93 -4z"/>
<path d="M1690 1655 l0 -95 375 0 376 0 -3 93 -3 92 -372 3 -373 2 0 -95z"/>
<path d="M2624 1737 c-3 -8 -4 -49 -2 -93 l3 -79 283 -3 283 -2 -3 92 -3 93
-278 3 c-226 2 -278 0 -283 -11z"/>
<path d="M3377 1743 c-4 -3 -7 -46 -7 -95 l0 -88 95 0 95 0 0 95 0 95 -88 0
c-49 0 -92 -3 -95 -7z"/>
<path d="M3757 1744 c-4 -4 -7 -47 -7 -96 l0 -88 95 0 96 0 -3 93 -3 92 -85 3
c-47 1 -89 0 -93 -4z"/>
<path d="M560 1275 l0 -95 95 0 95 0 0 95 0 95 -95 0 -95 0 0 -95z"/>
<path d="M940 1275 l0 -95 468 2 467 3 0 90 0 90 -467 3 -468 2 0 -95z"/>
<path d="M2060 1275 l0 -95 283 2 282 3 0 90 0 90 -282 3 -283 2 0 -95z"/>
<path d="M2810 1275 l0 -95 95 0 95 0 0 95 0 95 -95 0 -95 0 0 -95z"/>
<path d="M3190 1275 l0 -96 93 3 92 3 0 90 0 90 -92 3 -93 3 0 -96z"/>
<path d="M3560 1275 l0 -95 190 0 190 0 0 95 0 95 -190 0 -190 0 0 -95z"/>
</g>
</svg>
