<?xml version="1.0" standalone="no"?>
<!DOCTYPE svg PUBLIC "-//W3C//DTD SVG 20010904//EN"
 "http://www.w3.org/TR/2001/REC-SVG-20010904/DTD/svg10.dtd">
<svg version="1.0" xmlns="http://www.w3.org/2000/svg"
 width="50" height="50" viewBox="0 0 300.000000 300.000000"
 preserveAspectRatio="xMidYMid meet">
<metadata>
Created by potrace 1.10, written by Peter Selinger 2001-2011
</metadata>
<g transform="translate(0.000000,300.000000) scale(0.050000,-0.050000)"
fill="#000000" stroke="none">
<path d="M281 5848 c-129 -109 -121 34 -121 -2219 0 -2271 -8 -2138 127 -2234
63 -45 67 -45 1018 -51 l955 -5 0 -307 0 -306 -111 -12 c-187 -19 -348 -140
-432 -324 -38 -84 -50 -260 -18 -279 53 -33 2551 -12 2576 22 129 177 -215
587 -492 587 l-63 0 0 310 0 310 955 0 c912 0 958 2 1019 39 134 82 126 -60
126 2262 l0 2104 -78 77 -77 78 -2661 0 -2661 0 -62 -52z m5336 -155 c16 -19
24 -507 28 -1690 l5 -1663 -2655 0 -2655 0 0 1659 c0 1481 3 1662 31 1690 44
44 5210 48 5246 4z m43 -3813 c0 -253 -4 -284 -40 -320 -57 -57 -5161 -64
-5223 -7 -33 29 -37 68 -37 320 l0 287 2650 0 2650 0 0 -280z m-2100 -850 l0
-310 -560 0 -560 0 0 310 0 310 560 0 560 0 0 -310z m380 -530 c73 -37 180
-162 180 -210 0 -13 -374 -20 -1120 -20 -803 0 -1120 6 -1120 22 0 47 95 159
171 202 117 67 1760 72 1889 6z"/>
<path d="M1614 5324 c-21 -23 -38 -91 -46 -185 -20 -229 -60 -246 -238 -103
-180 145 -163 148 -400 -70 -244 -225 -240 -210 -108 -390 151 -208 122 -256
-151 -256 -169 0 -176 -12 -195 -332 -19 -322 -20 -318 155 -348 194 -34 201
-37 224 -88 21 -44 12 -60 -96 -178 -150 -164 -152 -148 55 -401 201 -246 199
-245 386 -125 l137 89 106 -55 107 -55 16 -158 c23 -228 24 -229 344 -229 322
0 322 0 342 234 19 233 60 250 240 96 170 -144 173 -144 412 87 233 225 228
196 73 408 -107 148 -93 214 48 216 100 2 270 28 287 44 6 6 19 136 30 288 21
321 23 317 -153 347 -194 34 -201 37 -225 88 -20 46 -12 61 97 181 149 165
152 145 -56 398 -202 247 -204 248 -388 124 l-132 -89 -108 56 -107 55 -17
159 c-24 228 -24 228 -343 228 -229 0 -268 -5 -296 -36z m475 -279 c15 -137
52 -225 96 -225 14 0 90 -33 169 -73 l144 -74 139 92 138 92 100 -125 100
-125 -110 -114 c-118 -123 -117 -117 -64 -313 31 -117 55 -133 230 -161 l146
-24 -10 -143 c-15 -202 -6 -192 -173 -192 -159 0 -194 -19 -224 -120 -9 -27
-28 -68 -43 -89 -45 -65 -32 -117 61 -244 l89 -122 -116 -114 -116 -115 -78
68 c-42 38 -102 87 -133 111 l-56 42 -104 -48 c-57 -27 -115 -49 -129 -49 -37
0 -61 -71 -75 -225 l-13 -135 -157 0 -157 0 -13 135 c-14 158 -38 225 -78 225
-16 0 -90 32 -163 70 -167 87 -166 87 -309 -10 -115 -78 -160 -96 -160 -65 0
9 -41 63 -92 121 l-92 105 113 114 c121 124 120 120 70 305 -33 124 -50 136
-216 168 -178 34 -163 14 -149 197 l12 155 74 0 c224 0 256 15 320 151 76 159
76 169 -19 298 -106 143 -107 130 24 250 l115 105 118 -102 c137 -119 119
-115 272 -53 124 50 169 100 170 191 0 28 6 84 13 125 l12 75 155 0 155 0 14
-135z"/>
<path d="M1687 4462 c-595 -271 -417 -1162 233 -1161 553 1 806 689 388 1057
-160 140 -438 187 -621 104z m467 -214 c209 -169 243 -421 82 -616 -333 -404
-940 55 -664 501 121 196 410 253 582 115z"/>
<path d="M4273 4251 c-16 -17 -35 -75 -43 -130 -16 -119 -13 -118 -110 -41
-103 82 -131 76 -275 -58 -139 -130 -148 -163 -75 -262 75 -102 67 -120 -59
-120 -133 0 -136 -5 -147 -214 -10 -194 1 -216 126 -235 117 -17 122 -32 39
-112 -93 -90 -88 -115 52 -278 137 -160 144 -162 252 -84 112 81 187 47 187
-85 0 -129 37 -152 245 -152 201 0 235 25 235 174 0 102 3 103 100 26 102 -81
132 -76 270 40 162 137 164 144 92 258 -80 123 -80 122 46 122 136 0 144 12
158 223 13 198 0 223 -133 243 -107 17 -110 25 -37 100 88 90 81 136 -41 284
-133 161 -141 163 -256 89 -125 -80 -170 -61 -190 76 -21 147 -47 165 -241
165 -119 0 -173 -8 -195 -29z m276 -240 c13 -86 18 -92 141 -152 l127 -63 82
46 82 46 42 -42 42 -42 -65 -81 -65 -81 34 -86 c47 -117 61 -131 153 -146 106
-18 112 -116 8 -125 -126 -12 -149 -25 -190 -109 -52 -109 -51 -145 11 -226
l52 -67 -52 -34 c-49 -32 -53 -32 -123 30 -39 35 -78 60 -85 57 -7 -3 -55 -23
-107 -43 -89 -36 -93 -41 -106 -136 -16 -117 -133 -146 -146 -37 -13 122 -24
137 -136 189 -136 61 -155 62 -237 11 l-65 -39 -47 50 -46 49 67 70 c105 109
32 310 -113 310 -125 0 -99 136 27 144 157 10 232 178 136 304 l-50 65 48 45
47 45 74 -65 c117 -102 311 -20 311 132 0 122 130 105 149 -19z"/>
<path d="M4320 3754 c-333 -163 -339 -587 -10 -737 328 -149 673 220 506 543
-89 173 -339 271 -496 194z m257 -180 c96 -46 130 -191 70 -294 -108 -182
-397 -104 -397 107 0 175 160 267 327 187z"/>
<path d="M4164 1896 c-13 -13 -24 -43 -24 -66 0 -85 28 -90 460 -90 432 0 460
5 460 90 0 85 -28 90 -460 90 -294 0 -419 -7 -436 -24z"/>
</g>
</svg>
