<?xml version="1.0" standalone="no"?>
<!DOCTYPE svg PUBLIC "-//W3C//DTD SVG 20010904//EN"
 "http://www.w3.org/TR/2001/REC-SVG-20010904/DTD/svg10.dtd">
<svg version="1.0" xmlns="http://www.w3.org/2000/svg"
 width="50" height="50" viewBox="0 0 512.000000 512.000000"
 preserveAspectRatio="xMidYMid meet">
<metadata>
Created by potrace 1.10, written by Peter Selinger 2001-2011
</metadata>
<g transform="translate(0.000000,512.000000) scale(0.050000,-0.050000)" fill="#000000" stroke="none">
                <path d="M4409 10072 c-66 -49 -59 -679 8 -734 157 -126 213 -28 213 372 0
366 -8 390 -130 390 -29 0 -70 -13 -91 -28z" />
                <path d="M2646 9640 c-59 -24 -92 -92 -76 -157 29 -116 312 -583 362 -595 142
-36 212 62 147 209 -124 282 -328 580 -385 562 -2 -1 -24 -9 -48 -19z" />
                <path d="M6248 9637 c-41 -20 -250 -364 -327 -540 -64 -145 -4 -234 142 -214
51 8 345 493 368 609 21 102 -89 190 -183 145z" />
                <path d="M1333 8239 c-126 -99 -73 -170 271 -366 297 -168 396 -168 396 0 0
78 -19 94 -321 265 -281 159 -274 157 -346 101z" />
                <path d="M7318 8135 c-311 -179 -318 -185 -318 -264 0 -167 101 -166 396 2
344 195 397 267 271 366 -72 57 -67 58 -349 -104z" />
                <path d="M851 6416 c-46 -66 -38 -128 22 -175 79 -62 645 -63 707 -1 50 50 52
143 3 187 -64 58 -690 48 -732 -11z" />
                <path d="M7413 6423 c-45 -49 -42 -134 7 -183 62 -62 628 -61 707 1 60 47 68
109 22 175 -44 62 -680 69 -736 7z" />
                <path d="M1630 4800 c-270 -157 -319 -202 -300 -279 34 -141 126 -132 430 45
282 165 330 218 279 309 -55 99 -135 85 -409 -75z" />
                <path d="M6971 4896 c-77 -110 -41 -152 291 -343 281 -162 374 -171 407 -41
21 84 -27 130 -295 284 -272 157 -349 176 -403 100z" />
                <path d="M4160 8898 c-149 -23 -214 -58 -231 -126 -29 -114 72 -183 213 -147
168 43 704 29 918 -24 1449 -355 2211 -1917 1579 -3238 -130 -273 -240 -425
-510 -703 -320 -331 -422 -501 -477 -798 l-24 -128 -315 -1 -315 -1 1 603 c2
671 0 685 -136 685 -123 0 -125 -12 -124 -684 l2 -609 -191 0 -190 0 0 1037 0
1036 191 0 191 0 -3 -251 c-4 -286 14 -329 133 -329 109 0 128 50 128 334 l0
246 161 0 c432 0 652 428 382 743 -295 345 -802 118 -803 -358 l0 -125 -195 0
-195 0 -1 155 c-4 387 -341 602 -671 429 -429 -224 -262 -823 234 -841 l188
-7 0 -1033 0 -1033 -317 0 -318 0 -23 126 c-54 294 -193 530 -473 804 -1181
1155 -899 3030 566 3768 167 83 198 138 131 229 -144 193 -888 -323 -1251
-868 -720 -1082 -575 -2351 382 -3339 294 -303 403 -517 403 -792 0 -113 45
-177 130 -186 l60 -6 6 -152 6 -152 -114 -6 c-254 -13 -250 -256 4 -256 l110
0 -6 -145 -6 -145 -91 6 c-117 9 -186 -41 -186 -134 0 -94 49 -132 172 -132
l105 0 13 -92 c29 -202 172 -348 379 -386 60 -11 78 -26 110 -96 231 -514
1042 -521 1300 -12 43 84 58 97 128 108 185 30 354 210 375 398 l10 89 83 -12
c158 -21 255 130 150 235 -36 36 -58 41 -140 31 l-98 -11 0 149 0 149 107 0
c121 0 173 38 173 127 0 86 -64 133 -181 133 l-101 0 6 153 c6 152 6 153 64
159 95 10 120 52 134 233 25 306 99 441 428 779 573 589 812 1188 784 1966
-54 1521 -1449 2677 -2954 2448z m-175 -2479 c69 -32 92 -80 106 -227 l12
-132 -143 0 c-131 0 -148 5 -202 58 -155 156 24 393 227 301z m1313 -8 c204
-106 95 -351 -157 -351 l-141 0 0 111 c0 221 131 326 298 240z m142 -3096 l0
-155 -890 0 -890 0 0 155 0 155 890 0 890 0 0 -155z m0 -560 l0 -145 -890 0
-890 0 0 145 0 145 890 0 890 0 0 -145z m0 -450 c0 -24 -26 -74 -58 -110 l-59
-65 -716 -6 c-877 -8 -947 5 -947 174 l0 52 890 0 890 0 0 -45z m-500 -456 c0
-80 -241 -208 -390 -208 -142 0 -410 142 -410 218 0 6 180 11 400 11 269 0
400 -7 400 -21z" />
            </g>
        </svg>
